<svg id="visual" viewBox="0 0 900 450" width="900" height="450" xmlns="http://www.w3.org/2000/svg" xmlns:xlink="http://www.w3.org/1999/xlink" version="1.1"><rect width="900" height="450" fill="#b7daf1"></rect><g><g transform="translate(842 8)"><path d="M0 -76.9L66.6 -38.4L66.6 38.4L0 76.9L-66.6 38.4L-66.6 -38.4Z" fill="none" stroke="#2991d6" stroke-width="2"></path></g><g transform="translate(577 8)"><path d="M0 -57L49.4 -28.5L49.4 28.5L0 57L-49.4 28.5L-49.4 -28.5Z" stroke="#2991d6" fill="none" stroke-width="2"></path></g><g transform="translate(27 53)"><path d="M0 -69L59.8 -34.5L59.8 34.5L0 69L-59.8 34.5L-59.8 -34.5Z" stroke="#2991d6" fill="none" stroke-width="2"></path></g><g transform="translate(723 269)"><path d="M0 -63L54.6 -31.5L54.6 31.5L0 63L-54.6 31.5L-54.6 -31.5Z" stroke="#2991d6" fill="none" stroke-width="2"></path></g><g transform="translate(330 418)"><path d="M0 -67L58 -33.5L58 33.5L0 67L-58 33.5L-58 -33.5Z" stroke="#2991d6" fill="none" stroke-width="2"></path></g></g></svg>