<svg id="visual" viewBox="0 0 900 450" width="900" height="450" xmlns="http://www.w3.org/2000/svg" xmlns:xlink="http://www.w3.org/1999/xlink" version="1.1"><rect width="900" height="450" fill="#d9edfb"></rect><g><g transform="translate(689 54)"><path d="M0 -129.8L112.4 -64.9L112.4 64.9L0 129.8L-112.4 64.9L-112.4 -64.9Z" fill="none" stroke="#2991d6" stroke-width="2"></path></g><g transform="translate(698 413)"><path d="M0 -116L100.5 -58L100.5 58L0 116L-100.5 58L-100.5 -58Z" fill="none" stroke="#2991d6" stroke-width="2"></path></g><g transform="translate(192 384)"><path d="M0 -124L107.4 -62L107.4 62L0 124L-107.4 62L-107.4 -62Z" stroke="#2991d6" fill="none" stroke-width="2"></path></g><g transform="translate(93 101)"><path d="M0 -122L105.7 -61L105.7 61L0 122L-105.7 61L-105.7 -61Z" stroke="#2991d6" fill="none" stroke-width="2"></path></g></g></svg>